<svg xmlns="http://www.w3.org/2000/svg" viewBox="2.98 3 10.02 10">     <path d="M3.994 3c.554 0 1 .446 1 1s-.446 1-1 1-1-.446-1-1 .446-1 1-1zm4 0c.554 0 1 .446 1 1s-.446 1-1 1-1-.446-1-1 .446-1 1-1zm4 0c.554 0 1 .446 1 1s-.446 1-1 1-1-.446-1-1 .446-1 1-1zm-8 4c.554 0 1 .446 1 1s-.446 1-1 1-1-.446-1-1 .446-1 1-1zm4 0c.554 0 1 .446 1 1s-.446 1-1 1-1-.446-1-1 .446-1 1-1zm4 0c.554 0 1 .446 1 1s-.446 1-1 1-1-.446-1-1 .446-1 1-1zm-8 4c.554 0 1 .446 1 1s-.446 1-1 1-1-.446-1-1 .446-1 1-1zm4 0c.554 0 1 .446 1 1s-.446 1-1 1-1-.446-1-1 .446-1 1-1zm4 0c.554 0 1 .446 1 1s-.446 1-1 1-1-.446-1-1 .446-1 1-1z" style="marker:none" overflow="visible" color="#000" fill="#EEE"></path> </svg>
